<svg width="33" height="32" viewBox="0 0 33 32" fill="none" xmlns="http://www.w3.org/2000/svg">
<path d="M28.2853 13.84H16.744V18.28H23.4969C23.3741 19.36 22.6375 21.04 21.0413 22.12C20.0591 22.84 18.5857 23.32 16.744 23.32C12.6388 23.32 9.37724 19.8906 9.37724 15.88C9.37724 11.983 12.824 8.56 16.744 8.56C19.0768 8.56 20.5502 9.52 21.5324 10.36L24.9703 7C22.883 5.2 20.0591 4 16.744 4C11.9556 4 7.7811 6.64 5.81663 10.6C4.06112 14.0315 4.06112 17.9685 5.81663 21.4C7.7811 25.36 11.9556 28 16.744 28C20.0591 28 22.883 26.92 24.8475 25.12C28.0486 22.3207 28.9749 17.8836 28.2853 13.84Z" stroke="#314158" stroke-width="1.5" stroke-miterlimit="10" stroke-linecap="round" stroke-linejoin="round"/>
</svg>
